<svg xmlns="http://www.w3.org/2000/svg" xmlns:xlink="http://www.w3.org/1999/xlink" width="1060" height="472.49"><rect width="1060" height="472.49" rx="5" ry="5" class="a"/><svg y="0%" x="0%"><circle cx="20" cy="20" r="6" fill="#ff5f58"/><circle cx="40" cy="20" r="6" fill="#ffbd2e"/><circle cx="60" cy="20" r="6" fill="#18c132"/></svg><svg height="412.49" viewBox="0 0 102 41.249" width="1020" x="15" xmlns="http://www.w3.org/2000/svg" xmlns:xlink="http://www.w3.org/1999/xlink" y="50"><style>@keyframes n{0%{transform:translateX(0)}.5%{transform:translateX(-102px)}.6%{transform:translateX(-306px)}19.6%{transform:translateX(-408px)}20.8%{transform:translateX(-510px)}21.5%{transform:translateX(-612px)}22.3%{transform:translateX(-714px)}22.7%{transform:translateX(-816px)}23.7%{transform:translateX(-918px)}24.7%{transform:translateX(-1020px)}28.4%{transform:translateX(-1122px)}35.2%{transform:translateX(-1224px)}47.6%{transform:translateX(-1326px)}47.7%{transform:translateX(-1428px)}51.9%{transform:translateX(-1632px)}52.1%{transform:translateX(-1734px)}52.3%{transform:translateX(-1938px)}94.6%{transform:translateX(-2040px)}96.1%{transform:translateX(-2142px)}96.6%{transform:translateX(-2244px)}97.6%{transform:translateX(-2346px)}to{transform:translateX(-2550px)}}.a{fill:#282d35}.f{fill:#a8cc8c}.f,.g,.i,.k,.p{white-space:pre}.g{fill:#71bef2;font-weight:700}.i,.k,.p{fill:#999}.k,.p{fill:#b9c0cb}.p{fill:#e88388;font-weight:700}</style><g font-family="Monaco,Consolas,Menlo,'Bitstream Vera Sans Mono','Powerline Symbols',monospace" font-size="1.67"><defs><symbol id="1"><text y="1.67" class="f">┌──(</text><text x="4.008" y="1.67" class="g">kali㉿kali</text><text x="13.026" y="1.67" class="f">)-[</text><text x="16.032" y="1.67" style="white-space:pre" fill="#b9c0cb" font-weight="700">~/apt/windows-rpc-if-enum</text><text x="41.082" y="1.67" class="f">]</text></symbol><symbol id="2"><text y="1.67" class="f">└─</text><text x="2.004" y="1.67" class="g">$</text></symbol><symbol id="3"><text y="1.67" class="f">└─</text><text x="2.004" y="1.67" class="g">$</text><text x="4.008" y="1.67" class="f">python3</text><text x="12.024" y="1.67" class="i">windows-rpc-if-enum.py</text><text x="35.07" y="1.67" class="i">10.10.10.213</text></symbol><symbol id="4"><text y="1.67" class="f">└─</text><text x="2.004" y="1.67" class="g">$</text><text x="4.008" y="1.67" class="f">python3</text><text x="12.024" y="1.67" style="white-space:pre" fill="#b9c0cb" text-decoration="underline">windows-rpc-if-enum.py</text><text x="35.07" y="1.67" class="k">10.10.10.213</text></symbol><symbol id="5"><text y="1.67" class="k">[+]</text><text x="4.008" y="1.67" class="k">Target</text><text x="11.022" y="1.67" class="k">has</text><text x="15.03" y="1.67" class="k">hostname:</text><text x="25.05" y="1.67" class="k">apt</text></symbol><symbol id="6"><text y="1.67" class="k">[+]</text><text x="4.008" y="1.67" class="k">Target</text><text x="11.022" y="1.67" class="k">has</text><text x="15.03" y="1.67" class="k">IP</text><text x="18.036" y="1.67" class="k">address:</text><text x="27.054" y="1.67" class="k">10.10.10.213</text></symbol><symbol id="7"><text y="1.67" class="k">[+]</text><text x="4.008" y="1.67" class="k">Target</text><text x="11.022" y="1.67" class="k">has</text><text x="15.03" y="1.67" class="k">IP</text><text x="18.036" y="1.67" class="k">address:</text><text x="27.054" y="1.67" class="k">dead:beef::b885:d62a:d679:573f</text></symbol><symbol id="8"><text y="1.67" class="k">[+]</text><text x="4.008" y="1.67" class="k">Target</text><text x="11.022" y="1.67" class="k">has</text><text x="15.03" y="1.67" class="k">IP</text><text x="18.036" y="1.67" class="k">address:</text><text x="27.054" y="1.67" class="k">dead:beef::bc8f:4d1d:f1ae:4d60</text></symbol><symbol id="9"><text y="1.67" class="f">└─</text><text x="2.004" y="1.67" class="g">$</text><text x="4.008" y="1.67" class="f">exit</text></symbol><symbol id="a"><path fill="transparent" d="M0 0h102v19H0z"/></symbol><symbol id="b"><path fill="#6f7683" d="M0 0h1.102v2.171H0z"/></symbol></defs><path class="a" d="M0 0h102v41.249H0z"/><g style="animation-duration:14.68109s;animation-iteration-count:infinite;animation-name:n;animation-timing-function:steps(1,end)"><svg width="2652"><svg><use xlink:href="#a"/><use xlink:href="#b" x="-.004"/></svg><svg x="102"><use xlink:href="#a"/><use xlink:href="#b" x="-.004"/></svg><svg x="204"><use xlink:href="#a"/><use xlink:href="#b" x="3.996" y="2.146"/><use xlink:href="#1"/><use xlink:href="#2" y="2.171"/></svg><svg x="306"><use xlink:href="#a"/><use xlink:href="#b" x="3.996" y="2.146"/><use xlink:href="#1"/><use xlink:href="#2" y="2.171"/></svg><svg x="408"><use xlink:href="#a"/><use xlink:href="#b" x="4.996" y="2.146"/><use xlink:href="#1"/><text y="3.841" class="f">└─</text><text x="2.004" y="3.841" class="g">$</text><text x="4.008" y="3.841" class="p">p</text><text x="5.01" y="3.841" class="i">ython3</text><text x="12.024" y="3.841" class="i">windows-rpc-if-enum.py</text><text x="35.07" y="3.841" class="i">10.10.10.213</text></svg><svg x="510"><use xlink:href="#a"/><use xlink:href="#b" x="5.996" y="2.146"/><use xlink:href="#1"/><text y="3.841" class="f">└─</text><text x="2.004" y="3.841" class="g">$</text><text x="4.008" y="3.841" class="p">py</text><text x="6.012" y="3.841" class="i">thon3</text><text x="12.024" y="3.841" class="i">windows-rpc-if-enum.py</text><text x="35.07" y="3.841" class="i">10.10.10.213</text></svg><svg x="612"><use xlink:href="#a"/><use xlink:href="#b" x="6.996" y="2.146"/><use xlink:href="#1"/><text y="3.841" class="f">└─</text><text x="2.004" y="3.841" class="g">$</text><text x="4.008" y="3.841" class="p">pyt</text><text x="7.014" y="3.841" class="i">hon3</text><text x="12.024" y="3.841" class="i">windows-rpc-if-enum.py</text><text x="35.07" y="3.841" class="i">10.10.10.213</text></svg><svg x="714"><use xlink:href="#a"/><use xlink:href="#b" x="7.996" y="2.146"/><use xlink:href="#1"/><text y="3.841" class="f">└─</text><text x="2.004" y="3.841" class="g">$</text><text x="4.008" y="3.841" class="p">pyth</text><text x="8.016" y="3.841" class="i">on3</text><text x="12.024" y="3.841" class="i">windows-rpc-if-enum.py</text><text x="35.07" y="3.841" class="i">10.10.10.213</text></svg><svg x="816"><use xlink:href="#a"/><use xlink:href="#b" x="8.996" y="2.146"/><use xlink:href="#1"/><text y="3.841" class="f">└─</text><text x="2.004" y="3.841" class="g">$</text><text x="4.008" y="3.841" class="p">pytho</text><text x="9.018" y="3.841" class="i">n3</text><text x="12.024" y="3.841" class="i">windows-rpc-if-enum.py</text><text x="35.07" y="3.841" class="i">10.10.10.213</text></svg><svg x="918"><use xlink:href="#a"/><use xlink:href="#b" x="9.996" y="2.146"/><use xlink:href="#1"/><text y="3.841" class="f">└─</text><text x="2.004" y="3.841" class="g">$</text><text x="4.008" y="3.841" class="f">python</text><text x="10.02" y="3.841" class="i">3</text><text x="12.024" y="3.841" class="i">windows-rpc-if-enum.py</text><text x="35.07" y="3.841" class="i">10.10.10.213</text></svg><svg x="1020"><use xlink:href="#a"/><use xlink:href="#b" x="10.996" y="2.146"/><use xlink:href="#1"/><use xlink:href="#3" y="2.171"/></svg><svg x="1122"><use xlink:href="#a"/><use xlink:href="#b" x="11.996" y="2.146"/><use xlink:href="#1"/><use xlink:href="#3" y="2.171"/></svg><svg x="1224"><use xlink:href="#a"/><use xlink:href="#b" x="46.996" y="2.146"/><use xlink:href="#1"/><use xlink:href="#4" y="2.171"/></svg><svg x="1326"><use xlink:href="#a"/><use xlink:href="#b" x="46.996" y="2.146"/><use xlink:href="#1"/><use xlink:href="#4" y="2.171"/></svg><svg x="1428"><use xlink:href="#a"/><use xlink:href="#b" x="-.004" y="4.317"/><use xlink:href="#1"/><use xlink:href="#4" y="2.171"/></svg><svg x="1530"><use xlink:href="#a"/><use xlink:href="#b" x="-.004" y="10.83"/><use xlink:href="#1"/><use xlink:href="#4" y="2.171"/><use xlink:href="#5" y="4.342"/><use xlink:href="#6" y="6.513"/><use xlink:href="#7" y="8.684"/></svg><svg x="1632"><use xlink:href="#a"/><use xlink:href="#b" x="-.004" y="13.001"/><use xlink:href="#1"/><use xlink:href="#4" y="2.171"/><use xlink:href="#5" y="4.342"/><use xlink:href="#6" y="6.513"/><use xlink:href="#7" y="8.684"/><use xlink:href="#8" y="10.855"/></svg><svg x="1734"><use xlink:href="#a"/><use xlink:href="#b" x="-.004" y="15.172"/><use xlink:href="#1"/><use xlink:href="#4" y="2.171"/><use xlink:href="#5" y="4.342"/><use xlink:href="#6" y="6.513"/><use xlink:href="#7" y="8.684"/><use xlink:href="#8" y="10.855"/></svg><svg x="1836"><use xlink:href="#a"/><use xlink:href="#b" x="3.996" y="17.343"/><use xlink:href="#1"/><use xlink:href="#4" y="2.171"/><use xlink:href="#5" y="4.342"/><use xlink:href="#6" y="6.513"/><use xlink:href="#7" y="8.684"/><use xlink:href="#8" y="10.855"/><use xlink:href="#1" y="15.197"/><use xlink:href="#2" y="17.368"/></svg><svg x="1938"><use xlink:href="#a"/><use xlink:href="#b" x="3.996" y="17.343"/><use xlink:href="#1"/><use xlink:href="#4" y="2.171"/><use xlink:href="#5" y="4.342"/><use xlink:href="#6" y="6.513"/><use xlink:href="#7" y="8.684"/><use xlink:href="#8" y="10.855"/><use xlink:href="#1" y="15.197"/><use xlink:href="#2" y="17.368"/></svg><svg x="2040"><use xlink:href="#a"/><use xlink:href="#b" x="4.996" y="17.343"/><use xlink:href="#1"/><use xlink:href="#4" y="2.171"/><use xlink:href="#5" y="4.342"/><use xlink:href="#6" y="6.513"/><use xlink:href="#7" y="8.684"/><use xlink:href="#8" y="10.855"/><use xlink:href="#1" y="15.197"/><text y="19.038" class="f">└─</text><text x="2.004" y="19.038" class="g">$</text><text x="4.008" y="19.038" class="p">e</text><text x="5.01" y="19.038" class="i">xit</text></svg><svg x="2142"><use xlink:href="#a"/><use xlink:href="#b" x="5.996" y="17.343"/><use xlink:href="#1"/><use xlink:href="#4" y="2.171"/><use xlink:href="#5" y="4.342"/><use xlink:href="#6" y="6.513"/><use xlink:href="#7" y="8.684"/><use xlink:href="#8" y="10.855"/><use xlink:href="#1" y="15.197"/><text y="19.038" class="f">└─</text><text x="2.004" y="19.038" class="g">$</text><text x="4.008" y="19.038" class="f">ex</text><text x="6.012" y="19.038" class="i">it</text></svg><svg x="2244"><use xlink:href="#a"/><use xlink:href="#b" x="6.996" y="17.343"/><use xlink:href="#1"/><use xlink:href="#4" y="2.171"/><use xlink:href="#5" y="4.342"/><use xlink:href="#6" y="6.513"/><use xlink:href="#7" y="8.684"/><use xlink:href="#8" y="10.855"/><use xlink:href="#1" y="15.197"/><text y="19.038" class="f">└─</text><text x="2.004" y="19.038" class="g">$</text><text x="4.008" y="19.038" class="p">exi</text><text x="7.014" y="19.038" class="i">t</text></svg><svg x="2346"><use xlink:href="#a"/><use xlink:href="#b" x="7.996" y="17.343"/><use xlink:href="#1"/><use xlink:href="#4" y="2.171"/><use xlink:href="#5" y="4.342"/><use xlink:href="#6" y="6.513"/><use xlink:href="#7" y="8.684"/><use xlink:href="#8" y="10.855"/><use xlink:href="#1" y="15.197"/><use xlink:href="#9" y="17.368"/></svg><svg x="2448"><use xlink:href="#a"/><use xlink:href="#b" x="7.996" y="17.343"/><use xlink:href="#1"/><use xlink:href="#4" y="2.171"/><use xlink:href="#5" y="4.342"/><use xlink:href="#6" y="6.513"/><use xlink:href="#7" y="8.684"/><use xlink:href="#8" y="10.855"/><use xlink:href="#1" y="15.197"/><use xlink:href="#9" y="17.368"/></svg><svg x="2550"><use xlink:href="#a"/><use xlink:href="#b" x="-.004" y="19.514"/><use xlink:href="#1"/><use xlink:href="#4" y="2.171"/><use xlink:href="#5" y="4.342"/><use xlink:href="#6" y="6.513"/><use xlink:href="#7" y="8.684"/><use xlink:href="#8" y="10.855"/><use xlink:href="#1" y="15.197"/><use xlink:href="#9" y="17.368"/></svg></svg></g></g></svg></svg>